<svg xmlns="http://www.w3.org/2000/svg" width="375.53000000000003" height="35" viewBox="0 0 375.53000000000003 35"><rect class="svg__rect" x="0" y="0" width="115.31" height="35" fill="#8FC965"/><rect class="svg__rect" x="113.31" y="0" width="262.22" height="35" fill="#419B5A"/><path class="svg__text" d="M15.69 22L14.22 22L14.22 13.47L16.14 13.47L18.60 20.01L21.06 13.47L22.97 13.47L22.97 22L21.49 22L21.49 19.19L21.64 15.43L19.12 22L18.06 22L15.55 15.43L15.69 19.19L15.69 22ZM28.49 22L26.95 22L30.17 13.47L31.50 13.47L34.73 22L33.18 22L32.49 20.01L29.18 20.01L28.49 22ZM30.83 15.28L29.60 18.82L32.07 18.82L30.83 15.28ZM41.14 22L38.69 22L38.69 13.47L41.21 13.47Q42.34 13.47 43.21 13.97Q44.09 14.48 44.57 15.40Q45.05 16.33 45.05 17.52L45.05 17.52L45.05 17.95Q45.05 19.16 44.57 20.08Q44.08 21.00 43.19 21.50Q42.30 22 41.14 22L41.14 22ZM40.17 14.66L40.17 20.82L41.14 20.82Q42.30 20.82 42.93 20.09Q43.55 19.36 43.56 17.99L43.56 17.99L43.56 17.52Q43.56 16.13 42.96 15.40Q42.35 14.66 41.21 14.66L41.21 14.66L40.17 14.66ZM55.09 22L49.51 22L49.51 13.47L55.05 13.47L55.05 14.66L51.00 14.66L51.00 17.02L54.50 17.02L54.50 18.19L51.00 18.19L51.00 20.82L55.09 20.82L55.09 22ZM66.65 22L64.68 13.47L66.15 13.47L67.47 19.88L69.10 13.47L70.34 13.47L71.96 19.89L73.27 13.47L74.74 13.47L72.77 22L71.35 22L69.73 15.77L68.07 22L66.65 22ZM80.38 22L78.90 22L78.90 13.47L80.38 13.47L80.38 22ZM86.87 14.66L84.23 14.66L84.23 13.47L91.00 13.47L91.00 14.66L88.34 14.66L88.34 22L86.87 22L86.87 14.66ZM96.24 22L94.75 22L94.75 13.47L96.24 13.47L96.24 17.02L100.05 17.02L100.05 13.47L101.53 13.47L101.53 22L100.05 22L100.05 18.21L96.24 18.21L96.24 22Z" fill="#FFFFFF"/><path class="svg__text" d="M131.47 22L127.50 22L127.50 13.60L131.47 13.60Q132.85 13.60 133.92 14.12Q134.99 14.63 135.58 15.58Q136.16 16.53 136.16 17.80L136.16 17.80Q136.16 19.07 135.58 20.02Q134.99 20.97 133.92 21.48Q132.85 22 131.47 22L131.47 22ZM129.88 15.50L129.88 20.10L131.38 20.10Q132.45 20.10 133.11 19.49Q133.76 18.88 133.76 17.80L133.76 17.80Q133.76 16.72 133.11 16.11Q132.45 15.50 131.38 15.50L131.38 15.50L129.88 15.50ZM140.46 17.80L140.46 17.80Q140.46 16.55 141.07 15.55Q141.67 14.56 142.74 14.00Q143.80 13.43 145.13 13.43L145.13 13.43Q146.46 13.43 147.52 14.00Q148.59 14.56 149.19 15.55Q149.80 16.55 149.80 17.80L149.80 17.80Q149.80 19.05 149.19 20.04Q148.59 21.04 147.53 21.60Q146.46 22.17 145.13 22.17L145.13 22.17Q143.80 22.17 142.74 21.60Q141.67 21.04 141.07 20.04Q140.46 19.05 140.46 17.80ZM142.86 17.80L142.86 17.80Q142.86 18.51 143.16 19.05Q143.46 19.60 143.98 19.90Q144.50 20.20 145.13 20.20L145.13 20.20Q145.77 20.20 146.28 19.90Q146.80 19.60 147.10 19.05Q147.40 18.51 147.40 17.80L147.40 17.80Q147.40 17.09 147.10 16.54Q146.80 16 146.28 15.70Q145.77 15.40 145.13 15.40L145.13 15.40Q144.49 15.40 143.98 15.70Q143.46 16 143.16 16.54Q142.86 17.09 142.86 17.80ZM156.72 22L154.53 22L154.53 13.60L156.48 13.60L159.44 18.45L162.32 13.60L164.27 13.60L164.29 22L162.12 22L162.09 17.55L159.93 21.17L158.87 21.17L156.72 17.67L156.72 22ZM170.87 22L168.45 22L172.16 13.60L174.50 13.60L178.22 22L175.75 22L175.09 20.37L171.54 20.37L170.87 22ZM173.31 15.93L172.23 18.61L174.39 18.61L173.31 15.93ZM184.75 22L182.37 22L182.37 13.60L184.75 13.60L184.75 22ZM192.26 22L189.92 22L189.92 13.60L191.88 13.60L195.59 18.07L195.59 13.60L197.92 13.60L197.92 22L195.96 22L192.26 17.52L192.26 22ZM209.82 22L203.08 22L203.08 13.60L209.67 13.60L209.67 15.44L205.43 15.44L205.43 16.85L209.17 16.85L209.17 18.63L205.43 18.63L205.43 20.17L209.82 20.17L209.82 22ZM225.57 22L221.60 22L221.60 13.60L225.57 13.60Q226.95 13.60 228.02 14.12Q229.09 14.63 229.68 15.58Q230.27 16.53 230.27 17.80L230.27 17.80Q230.27 19.07 229.68 20.02Q229.09 20.97 228.02 21.48Q226.95 22 225.57 22L225.57 22ZM223.98 15.50L223.98 20.10L225.48 20.10Q226.56 20.10 227.21 19.49Q227.86 18.88 227.86 17.80L227.86 17.80Q227.86 16.72 227.21 16.11Q226.56 15.50 225.48 15.50L225.48 15.50L223.98 15.50ZM237.37 22L234.99 22L234.99 13.60L238.84 13.60Q239.98 13.60 240.82 13.98Q241.66 14.35 242.11 15.06Q242.57 15.76 242.57 16.71L242.57 16.71Q242.57 17.62 242.14 18.30Q241.71 18.98 240.92 19.36L240.92 19.36L242.73 22L240.19 22L238.67 19.77L237.37 19.77L237.37 22ZM237.37 15.47L237.37 17.93L238.69 17.93Q239.42 17.93 239.80 17.61Q240.17 17.29 240.17 16.71L240.17 16.71Q240.17 16.12 239.80 15.79Q239.42 15.47 238.69 15.47L238.69 15.47L237.37 15.47ZM249.74 22L247.36 22L247.36 13.60L249.74 13.60L249.74 22ZM257.49 22L253.90 13.60L256.47 13.60L258.75 19.07L261.08 13.60L263.43 13.60L259.83 22L257.49 22ZM274.33 22L267.58 22L267.58 13.60L274.18 13.60L274.18 15.44L269.94 15.44L269.94 16.85L273.67 16.85L273.67 18.63L269.94 18.63L269.94 20.17L274.33 20.17L274.33 22ZM281.46 22L279.13 22L279.13 13.60L281.09 13.60L284.80 18.07L284.80 13.60L287.12 13.60L287.12 22L285.17 22L281.46 17.52L281.46 22ZM303.23 22L299.26 22L299.26 13.60L303.23 13.60Q304.62 13.60 305.68 14.12Q306.75 14.63 307.34 15.58Q307.93 16.53 307.93 17.80L307.93 17.80Q307.93 19.07 307.34 20.02Q306.75 20.97 305.68 21.48Q304.62 22 303.23 22L303.23 22ZM301.64 15.50L301.64 20.10L303.14 20.10Q304.22 20.10 304.87 19.49Q305.52 18.88 305.52 17.80L305.52 17.80Q305.52 16.72 304.87 16.11Q304.22 15.50 303.14 15.50L303.14 15.50L301.64 15.50ZM319.40 22L312.65 22L312.65 13.60L319.25 13.60L319.25 15.44L315.01 15.44L315.01 16.85L318.74 16.85L318.74 18.63L315.01 18.63L315.01 20.17L319.40 20.17L319.40 22ZM323.62 21.24L323.62 21.24L324.40 19.49Q324.96 19.86 325.70 20.09Q326.45 20.32 327.17 20.32L327.17 20.32Q328.53 20.32 328.54 19.64L328.54 19.64Q328.54 19.28 328.15 19.11Q327.76 18.93 326.89 18.74L326.89 18.74Q325.94 18.53 325.31 18.30Q324.67 18.06 324.22 17.55Q323.76 17.03 323.76 16.16L323.76 16.16Q323.76 15.39 324.18 14.77Q324.60 14.15 325.44 13.79Q326.27 13.43 327.48 13.43L327.48 13.43Q328.30 13.43 329.11 13.62Q329.92 13.80 330.53 14.17L330.53 14.17L329.80 15.93Q328.60 15.28 327.47 15.28L327.47 15.28Q326.76 15.28 326.44 15.49Q326.11 15.70 326.11 16.04L326.11 16.04Q326.11 16.37 326.50 16.54Q326.88 16.71 327.73 16.89L327.73 16.89Q328.69 17.10 329.32 17.33Q329.95 17.56 330.41 18.07Q330.88 18.58 330.88 19.46L330.88 19.46Q330.88 20.21 330.46 20.83Q330.04 21.44 329.20 21.80Q328.36 22.17 327.16 22.17L327.16 22.17Q326.14 22.17 325.18 21.92Q324.21 21.67 323.62 21.24ZM337.83 22L335.45 22L335.45 13.60L337.83 13.60L337.83 22ZM342.58 17.80L342.58 17.80Q342.58 16.54 343.18 15.54Q343.77 14.55 344.84 13.99Q345.91 13.43 347.25 13.43L347.25 13.43Q348.43 13.43 349.37 13.83Q350.31 14.22 350.93 14.97L350.93 14.97L349.42 16.33Q348.57 15.40 347.39 15.40L347.39 15.40Q347.38 15.40 347.38 15.40L347.38 15.40Q346.30 15.40 345.64 16.06Q344.97 16.71 344.97 17.80L344.97 17.80Q344.97 18.50 345.28 19.04Q345.58 19.59 346.12 19.89Q346.66 20.20 347.35 20.20L347.35 20.20Q348.04 20.20 348.64 19.93L348.64 19.93L348.64 17.62L350.73 17.62L350.73 21.10Q350.01 21.61 349.08 21.89Q348.14 22.17 347.21 22.17L347.21 22.17Q345.89 22.17 344.83 21.61Q343.77 21.05 343.18 20.05Q342.58 19.06 342.58 17.80ZM358.06 22L355.73 22L355.73 13.60L357.68 13.60L361.39 18.07L361.39 13.60L363.72 13.60L363.72 22L361.77 22L358.06 17.52L358.06 22Z" fill="#FFFFFF" x="126.31"/></svg>